<svg xmlns="http://www.w3.org/2000/svg" width="12" height="15" viewBox="0 0 12 15"><g transform="translate(-48.842)"><path d="M54.847,15A1.407,1.407,0,0,1,54,14.724a12.847,12.847,0,0,1-5.029-7.567.434.434,0,0,1-.009-.061,5.866,5.866,0,0,1-.124-1.2,6,6,0,0,1,12,0,5.785,5.785,0,0,1-.14,1.272.41.41,0,0,1-.009.059,12.87,12.87,0,0,1-4.922,7.433l-.185.133a.442.442,0,0,1-.042.026A1.426,1.426,0,0,1,54.847,15ZM49.865,7.02a11.972,11.972,0,0,0,4.676,7,.517.517,0,0,0,.539.046l.155-.112A11.986,11.986,0,0,0,59.8,7.087a.423.423,0,0,1,.01-.06,4.905,4.905,0,0,0,.131-1.132,5.1,5.1,0,0,0-10.2,0,4.985,4.985,0,0,0,.116,1.072A.446.446,0,0,1,49.865,7.02Z" fill="#1c1d20"/><path d="M154.462,108.584a2.98,2.98,0,1,1,2.981-2.98A2.984,2.984,0,0,1,154.462,108.584Zm0-4.918A1.938,1.938,0,1,0,156.4,105.6,1.94,1.94,0,0,0,154.462,103.665Z" transform="translate(-99.621 -99.561)" fill="#1c1d20"/></g></svg>