<svg xmlns="http://www.w3.org/2000/svg" width="18" height="19" viewBox="0 0 18 19"><g transform="translate(-334 -47)"><g transform="translate(326 43)"><path d="M15.385,23a1.846,1.846,0,0,0,1.846-1.846H13.538A1.846,1.846,0,0,0,15.385,23Zm5.538-5.538V12.846c0-2.838-1.509-5.206-4.154-5.834V6.385a1.385,1.385,0,0,0-2.769,0v.628c-2.645.628-4.154,3-4.154,5.834v4.615L8,19.308v.923H22.769v-.923Zm-1.846.923H11.692V12.846c0-2.294,1.4-4.154,3.692-4.154s3.692,1.86,3.692,4.154Z" fill="#1c1d20"/></g><g transform="translate(344 49)" fill="#fd3259" stroke="#fff" stroke-width="2"><circle cx="3" cy="3" r="3" stroke="none"/><circle cx="3" cy="3" r="4" fill="none"/></g></g></svg>