<svg xmlns="http://www.w3.org/2000/svg" width="22" height="22" viewBox="0 0 22 22"><g transform="translate(7.511 7.511)"><path d="M179.489,176a3.489,3.489,0,1,0,3.489,3.489A3.493,3.493,0,0,0,179.489,176Zm0,5.233a1.744,1.744,0,1,1,1.744-1.744A1.746,1.746,0,0,1,179.489,181.233Z" transform="translate(-176 -176)" fill="#707586"/></g><g transform="translate(0)"><path d="M23.66,13.563l-2.243-1.705a8.038,8.038,0,0,0,0-1.715L23.66,8.438a.855.855,0,0,0,.219-1.119L21.707,3.667A.869.869,0,0,0,20.644,3.3l-2.661,1.04a8.483,8.483,0,0,0-1.555-.874l-.4-2.734A.864.864,0,0,0,15.171,0H10.828A.864.864,0,0,0,9.97.736l-.4,2.734a8.486,8.486,0,0,0-1.555.874L5.355,3.3a.869.869,0,0,0-1.063.363L2.12,7.319a.855.855,0,0,0,.219,1.119l2.243,1.705a8.038,8.038,0,0,0,0,1.715L2.339,13.562a.855.855,0,0,0-.219,1.119l2.172,3.651a.869.869,0,0,0,1.063.363l2.661-1.04a8.485,8.485,0,0,0,1.555.874l.4,2.734a.864.864,0,0,0,.857.736h4.344a.864.864,0,0,0,.857-.736l.4-2.734a8.482,8.482,0,0,0,1.555-.874l2.661,1.04a.87.87,0,0,0,1.063-.363l2.172-3.651A.855.855,0,0,0,23.66,13.563Zm-3.069,3.265-2.427-.948a.872.872,0,0,0-.863.132,6.762,6.762,0,0,1-1.954,1.1.861.861,0,0,0-.562.684l-.364,2.489H11.577l-.364-2.489a.861.861,0,0,0-.562-.684,6.764,6.764,0,0,1-1.954-1.1.872.872,0,0,0-.863-.132l-2.427.948L4,14.464l2.034-1.546a.856.856,0,0,0,.327-.828,6.354,6.354,0,0,1,0-2.178.856.856,0,0,0-.327-.828L4,7.536,5.408,5.172l2.427.948A.872.872,0,0,0,8.7,5.989a6.764,6.764,0,0,1,1.954-1.1.861.861,0,0,0,.562-.684l.364-2.489h2.845l.364,2.489a.861.861,0,0,0,.562.684,6.764,6.764,0,0,1,1.954,1.1.872.872,0,0,0,.863.132l2.427-.948L22,7.536,19.964,9.083a.856.856,0,0,0-.327.828,6.354,6.354,0,0,1,0,2.178.856.856,0,0,0,.327.828L22,14.464Z" transform="translate(-2)" fill="#707586"/></g></svg>