<svg xmlns="http://www.w3.org/2000/svg" width="21.998" height="22" viewBox="0 0 21.998 22"><path d="M21.407,9.568l0,0L12.431.593a2.025,2.025,0,0,0-2.864,0L.6,9.562l-.009.009a2.024,2.024,0,0,0,1.348,3.451q.031,0,.062,0h.358v6.6A2.373,2.373,0,0,0,4.726,22H8.237a.645.645,0,0,0,.645-.645V16.177A1.083,1.083,0,0,1,9.963,15.1h2.071a1.083,1.083,0,0,1,1.081,1.081v5.178A.644.644,0,0,0,13.76,22h3.511a2.373,2.373,0,0,0,2.37-2.37v-6.6h.332a2.025,2.025,0,0,0,1.433-3.457Zm0,0" transform="translate(0 0.001)"/></svg>