<svg xmlns="http://www.w3.org/2000/svg" width="18.57" height="16.662" viewBox="0 0 18.57 16.662"><g transform="translate(-35.485 -43.569)"><g transform="translate(35.485 43.569)"><path d="M28.717,35.442A2.836,2.836,0,0,0,26.8,33.849V26.694a.694.694,0,0,0-1.389,0v7.151a3.218,3.218,0,0,0-.486.167,2.86,2.86,0,0,0,.486,5.381v2.576a.694.694,0,0,0,1.389,0V39.4a2.854,2.854,0,0,0,1.913-3.954Zm-1.225,1.7A1.475,1.475,0,1,1,25.5,35.279a1.437,1.437,0,0,1,.6-.132,1.479,1.479,0,0,1,1.347.868,1.461,1.461,0,0,1,.045,1.128Z" transform="translate(-23.249 -26)" fill="#fff"/><path d="M65.717,35.442A2.836,2.836,0,0,0,63.8,33.849V26.694a.694.694,0,0,0-1.389,0v7.151a3.218,3.218,0,0,0-.486.167,2.86,2.86,0,0,0,.486,5.381v2.576a.694.694,0,0,0,1.389,0V39.4a2.854,2.854,0,0,0,1.913-3.954Zm-1.225,1.7A1.475,1.475,0,1,1,62.5,35.279a1.448,1.448,0,0,1,.6-.132,1.479,1.479,0,0,1,1.347.868,1.461,1.461,0,0,1,.038,1.128Z" transform="translate(-47.405 -26)" fill="#fff"/><path d="M45.622,29.471c-.1-.038-.208-.069-.316-.1v-2.68a.694.694,0,0,0-1.389,0v2.69a2.864,2.864,0,0,0-.316,5.457c.1.038.212.069.316.1v7.029a.694.694,0,0,0,1.389,0V34.935a2.677,2.677,0,0,0,.486-.167,2.86,2.86,0,0,0-.17-5.3ZM46,32.682a1.475,1.475,0,1,1-1.382-2,1.5,1.5,0,0,1,.521.094,1.465,1.465,0,0,1,.812.774h0A1.461,1.461,0,0,1,46,32.682Z" transform="translate(-35.329 -26)" fill="#fff"/></g></g></svg>