<svg xmlns="http://www.w3.org/2000/svg" width="21.998" height="22" viewBox="0 0 21.998 22"><path d="M21.907,9.568l0,0L12.931.593a2.025,2.025,0,0,0-2.864,0L1.1,9.562l-.009.009a2.024,2.024,0,0,0,1.348,3.451c.021,0,.042,0,.063,0h.358v6.6A2.373,2.373,0,0,0,5.226,22H8.737a.645.645,0,0,0,.645-.645V16.177A1.083,1.083,0,0,1,10.463,15.1h2.071a1.083,1.083,0,0,1,1.081,1.081v5.178A.645.645,0,0,0,14.26,22h3.511a2.373,2.373,0,0,0,2.371-2.37v-6.6h.332a2.026,2.026,0,0,0,1.433-3.457Zm-.913,1.952a.732.732,0,0,1-.521.216H19.5a.644.644,0,0,0-.645.645v7.249a1.083,1.083,0,0,1-1.081,1.081H14.9V16.177a2.373,2.373,0,0,0-2.371-2.371H10.463a2.373,2.373,0,0,0-2.371,2.371V20.71H5.226a1.083,1.083,0,0,1-1.081-1.081V12.38a.644.644,0,0,0-.645-.645h-.99A.735.735,0,0,1,2,10.479H2L10.978,1.5a.736.736,0,0,1,1.041,0l8.972,8.972,0,0a.738.738,0,0,1,0,1.04Zm0,0" transform="translate(-0.5 0.001)" fill="#707586"/></svg>