<svg xmlns="http://www.w3.org/2000/svg" width="22" height="22" viewBox="0 0 22 22"><g transform="translate(0)"><g transform="translate(0)"><circle cx="1" cy="1" r="1" transform="translate(16.778 7.871)" fill="#707586"/><path d="M18.562,1.719H17.445V.859a.859.859,0,0,0-1.719,0v.859h-3.91V.859a.859.859,0,0,0-1.719,0v.859H6.23V.859a.859.859,0,1,0-1.719,0v.859H3.437A3.441,3.441,0,0,0,0,5.156V18.562A3.441,3.441,0,0,0,3.437,22h6.574a.859.859,0,1,0,0-1.719H3.437a1.721,1.721,0,0,1-1.719-1.719V5.156A1.721,1.721,0,0,1,3.437,3.437H4.512V4.3a.859.859,0,1,0,1.719,0V3.437H10.1V4.3a.859.859,0,1,0,1.719,0V3.437h3.91V4.3a.859.859,0,1,0,1.719,0V3.437h1.117a1.721,1.721,0,0,1,1.719,1.719v4.9a.859.859,0,1,0,1.719,0v-4.9A3.441,3.441,0,0,0,18.562,1.719Z" transform="translate(0)" fill="#707586"/><path d="M275.277,270a5.277,5.277,0,1,0,5.277,5.277A5.283,5.283,0,0,0,275.277,270Zm0,8.809a3.532,3.532,0,1,1,3.532-3.532A3.536,3.536,0,0,1,275.277,278.809Z" transform="translate(-258.554 -258.554)" fill="#707586"/><path d="M373.137,331.788h-.392v-.916a.872.872,0,0,0-1.744,0v1.788a.872.872,0,0,0,.872.872h1.265a.872.872,0,1,0,0-1.744Z" transform="translate(-355.149 -315.86)" fill="#707586"/><circle cx="1" cy="1" r="1" transform="translate(12.895 7.871)" fill="#707586"/><circle cx="1" cy="1" r="1" transform="translate(8.96 11.806)" fill="#707586"/><circle cx="1" cy="1" r="1" transform="translate(5.024 7.871)" fill="#707586"/><circle cx="1" cy="1" r="1" transform="translate(5.024 11.806)" fill="#707586"/><circle cx="1" cy="1" r="1" transform="translate(5.024 15.741)" fill="#707586"/><circle cx="1" cy="1" r="1" transform="translate(8.96 15.741)" fill="#707586"/><circle cx="1" cy="1" r="1" transform="translate(8.96 7.871)" fill="#707586"/></g></g></svg>