<svg xmlns="http://www.w3.org/2000/svg" width="15" height="15" viewBox="0 0 15 15"><g transform="translate(0 0)"><path d="M13.422,3.947a.625.625,0,0,0-.29.835A6.186,6.186,0,0,1,13.75,7.5,6.25,6.25,0,1,1,7.5,1.25,6.175,6.175,0,0,1,11.38,2.6a.625.625,0,1,0,.778-.978A7.5,7.5,0,1,0,15,7.5a7.423,7.423,0,0,0-.744-3.263.624.624,0,0,0-.835-.29Zm0,0" transform="translate(0 0)"/><path d="M176.779,64a.779.779,0,0,0-.779.779V70.23a.779.779,0,0,0,.779.779h3.894a.779.779,0,0,0,0-1.558h-3.115V64.779A.779.779,0,0,0,176.779,64Zm0,0" transform="translate(-169.821 -61.869)"/></g></svg>