<svg xmlns="http://www.w3.org/2000/svg" width="22.001" height="22" viewBox="0 0 22.001 22"><g transform="translate(0 -0.008)"><path d="M208.712,8c7.158,0,6.629,0,6.739,0a1.482,1.482,0,0,0-.387-.675L213.1,5.364a1.468,1.468,0,0,0-1.62-.307.781.781,0,0,1-1.03-1.03,1.468,1.468,0,0,0-.307-1.62L208.182.444a1.494,1.494,0,0,0-2.11,0L203.617,2.9,208.712,8Z" transform="translate(-194.833 0)" fill="#1c1d20"/><path d="M89.614,88.248l-4.183,4.183h8.363Z" transform="translate(-81.746 -84.433)" fill="#1c1d20"/><path d="M408.6,220.851a1.468,1.468,0,0,0,.929-1.363v-2.775a1.494,1.494,0,0,0-1.492-1.492H405v12.716h3.038a1.494,1.494,0,0,0,1.492-1.492V223.67a1.468,1.468,0,0,0-.929-1.362.781.781,0,0,1,0-1.457Z" transform="translate(-387.529 -205.929)" fill="#1c1d20"/><path d="M0,216.713v2.775a1.468,1.468,0,0,0,.929,1.362.781.781,0,0,1,0,1.457A1.468,1.468,0,0,0,0,223.67v2.775a1.494,1.494,0,0,0,1.492,1.492H16.177V215.221H1.492A1.494,1.494,0,0,0,0,216.713Zm4.53,1.518h9.706v1.294H4.53Zm0,2.588h9.706v1.294H4.53Zm0,2.588h9.706V224.7H4.53Z" transform="translate(0 -205.929)" fill="#1c1d20"/></g></svg>