<svg xmlns="http://www.w3.org/2000/svg" width="20" height="18" viewBox="0 0 20 18"><g transform="translate(0 -26.256)"><g transform="translate(0 26.256)"><path d="M18.718,28.929H1.282a1.338,1.338,0,0,1,0-2.673H18.718a1.338,1.338,0,0,1,0,2.673Z" transform="translate(0 -26.256)" fill="#1c1d20"/><path d="M12.029,225.852H1.337a1.337,1.337,0,1,1,0-2.673H12.029a1.337,1.337,0,1,1,0,2.673Z" transform="translate(0 -215.16)" fill="#1c1d20"/></g><path d="M397.321,225.852h-2.138a1.337,1.337,0,1,1,0-2.673h2.138a1.337,1.337,0,0,1,0,2.673Z" transform="translate(-378.658 -189.26)" fill="#767f86"/><path d="M18.718,422.775H1.282a1.338,1.338,0,0,1,0-2.673H18.718a1.338,1.338,0,0,1,0,2.673Z" transform="translate(0 -378.519)" fill="#1c1d20"/></g></svg>