<?xml version="1.0" encoding="UTF-8"?>
<svg width="61px" height="61px" viewBox="0 0 61 61" version="1.1" xmlns="http://www.w3.org/2000/svg" xmlns:xlink="http://www.w3.org/1999/xlink">
    <title>user1</title>
    <defs>
        <path d="M30.5,0 C47.3446849,0 61,13.6553151 61,30.5 C61,47.3446849 47.3446849,61 30.5,61 C13.6553151,61 0,47.3446849 0,30.5 C0,13.6553151 13.6553151,0 30.5,0 Z" id="path-1"></path>
        <linearGradient x1="50%" y1="100%" x2="50%" y2="0%" id="linearGradient-3">
            <stop stop-color="#E6864E" offset="0%"></stop>
            <stop stop-color="#E67240" offset="100%"></stop>
        </linearGradient>
        <linearGradient x1="50%" y1="100%" x2="50%" y2="0%" id="linearGradient-4">
            <stop stop-color="#FFC9B3" offset="0%"></stop>
            <stop stop-color="#FFD2C2" offset="100%"></stop>
        </linearGradient>
        <linearGradient x1="50%" y1="0%" x2="50%" y2="100%" id="linearGradient-5">
            <stop stop-color="#FFD4B3" offset="0%"></stop>
            <stop stop-color="#FFDCC2" offset="100%"></stop>
        </linearGradient>
    </defs>
    <g id="Page-1" stroke="none" stroke-width="1" fill="none" fill-rule="evenodd">
        <g id="Group">
            <mask id="mask-2" fill="white">
                <use xlink:href="#path-1"></use>
            </mask>
            <use id="Mask" fill="#02395B" fill-rule="nonzero" xlink:href="#path-1"></use>
            <g mask="url(#mask-2)" fill-rule="nonzero" id="Path">
                <g transform="translate(9.000000, 7.120000)">
                    <path d="M37.019,25.128 C38.681,19.609 39.705,10.174 32.719,3.721 C27.376,-1.21 12.949,-1.707 7.93,9.048 C7.092,10.848 8.237,13.657 10.491,13.555 C11.377,13.515 11.925,16.32 12.437,18.062 C11.72,25.129 5.337,25.262 2.092,30.662 C-1.903,37.32 3.014,47.152 14.792,47.152 C26.57,47.152 33.325,37.4 37.019,25.128 Z" fill="url(#linearGradient-3)"></path>
                    <path d="M41.013,41.304 C42.513,44.163 43.269,54.577 43.269,54.577 L1.025,54.577 C1.025,54.577 1.777,44.164 3.281,41.304 C5.536,37.017 22.147,31.504 22.147,31.504 C22.147,31.504 38.757,37.017 41.013,41.304 Z" fill="url(#linearGradient-4)"></path>
                    <path d="M27.084,33.834 C25.5311846,34.6632031 23.8195222,35.1520547 22.063,35.268 C20.3695285,35.1694638 18.7221588,34.6785394 17.251,33.834 L17.251,29.327 C16.7335935,29.4087693 16.2094492,29.4399165 15.686,29.42 C10.772,29.42 8.919,22.262 9.877,13.554 C10.492,13.554 11.925,13.554 13.977,10.686 C13.465,14.681 19.405,14.066 21.659,10.886 C20.532,14.676 23.503,17.236 26.059,15.7 C31.08,12.687 32.209,21.871 27.083,21.948 L27.084,33.834 Z" fill="url(#linearGradient-5)"></path>
                    <path d="M17.251,29.327 C19.7921817,28.8593424 22.2237932,27.9216289 24.421,26.562 C24.421,26.562 21.86,30.962 17.251,30.962 L17.251,29.327 Z" fill="#FFB597"></path>
                    <path d="M22.174,35.058 C23.655,34.991 27.084,34.266 27.084,32.699 L27.084,31.376 C27.8907975,31.7245906 28.58369,32.292416 29.084,33.015 C31.271,35.985 28.845,38.648 26.867,38.648 C24.367,38.648 22.717,36.562 22.167,35.559 C21.614,36.559 19.96,38.648 17.467,38.648 C15.489,38.648 13.067,35.985 15.25,33.015 C15.7505809,32.292271 16.4438362,31.7244322 17.251,31.376 L17.251,32.699 C17.251,34.266 20.773,34.991 22.174,35.058 Z" fill="#FFFFFF"></path>
                </g>
            </g>
        </g>
    </g>
</svg>