<svg xmlns="http://www.w3.org/2000/svg" xmlns:xlink="http://www.w3.org/1999/xlink" width="61" height="61" viewBox="0 0 61 61"><defs><linearGradient id="a" x1="0.5" x2="0.5" y2="1" gradientUnits="objectBoundingBox"><stop offset="0" stop-color="#806a6a"/><stop offset="1" stop-color="#665654"/></linearGradient><linearGradient id="b" x1="0.811" y1="0.188" x2="0.464" y2="1.089" gradientUnits="objectBoundingBox"><stop offset="0" stop-color="#eb915e"/><stop offset="1" stop-color="#f5a571"/></linearGradient><clipPath id="c"><path d="M30.5,0A30.5,30.5,0,1,1,0,30.5,30.5,30.5,0,0,1,30.5,0Z" transform="translate(0.208 -0.12)" fill="url(#a)"/></clipPath><linearGradient id="d" x1="0.5" y1="1" x2="0.5" gradientUnits="objectBoundingBox"><stop offset="0" stop-color="#ffc9b3"/><stop offset="1" stop-color="#ffd2c2"/></linearGradient><clipPath id="f"><path d="M17.451,23.148a12.392,12.392,0,0,1-5.021,1.434,10.942,10.942,0,0,1-4.812-1.434V18.641a8.062,8.062,0,0,1-1.565.093c-4.914,0-6.767-7.158-5.809-15.866.615,0,2.048,0,4.1-2.868-.512,3.995,5.428,3.38,7.682.2-1.127,3.79,1.844,6.35,4.4,4.814,5.021-3.013,6.15,6.171,1.024,6.248Z" fill="url(#b)"/></clipPath><linearGradient id="g" x1="0.811" y1="0.188" x2="0.464" y2="1.089" gradientUnits="objectBoundingBox"><stop offset="0" stop-color="#e68349"/><stop offset="1" stop-color="#f09960"/></linearGradient><linearGradient id="h" x1="0.5" x2="0.5" y2="1" gradientUnits="objectBoundingBox"><stop offset="0" stop-color="#130027"/><stop offset="1" stop-color="#130017"/></linearGradient></defs><g transform="translate(-0.208 0.12)"><g transform="translate(0 0)"><path d="M30.5,0A30.5,30.5,0,1,1,0,30.5,30.5,30.5,0,0,1,30.5,0Z" transform="translate(0.208 -0.12)" fill="#767f86"/><g transform="translate(0 0)" clip-path="url(#c)"><path d="M36.294,24.768c1.662-5.519,2.686-14.954-4.3-21.407C26.651-1.57,12.224-2.067,7.205,8.688c-.838,1.8.307,4.609,2.561,4.507.886-.04,1.434,2.765,1.946,4.507-.717,7.067-7.1,7.2-10.345,12.6-3.995,6.658.922,16.49,12.7,16.49S32.6,37.04,36.294,24.768Z" transform="translate(8.015 7.36)" fill="#fff"/><path d="M39.988,9.8c1.5,2.859,2.256,13.273,2.256,13.273H0S.752,12.66,2.256,9.8C4.511,5.513,21.122,0,21.122,0S37.732,5.513,39.988,9.8Z" transform="translate(8.377 38.504)" fill="url(#d)"/><g transform="translate(16.922 17.686)"><path d="M17.451,23.148a12.392,12.392,0,0,1-5.021,1.434,10.942,10.942,0,0,1-4.812-1.434V18.641a8.062,8.062,0,0,1-1.565.093c-4.914,0-6.767-7.158-5.809-15.866.615,0,2.048,0,4.1-2.868-.512,3.995,5.428,3.38,7.682.2-1.127,3.79,1.844,6.35,4.4,4.814,5.021-3.013,6.15,6.171,1.024,6.248Z" transform="translate(0)" fill="url(#b)"/><g transform="translate(0)" clip-path="url(#f)"><path d="M0,2.765A20.77,20.77,0,0,0,7.17,0S4.609,4.4,0,4.4Z" transform="translate(7.618 15.876)" opacity="0.6" fill="url(#g)" style="mix-blend-mode:multiply;isolation:isolate"/></g></g><path d="M7.791,3.682c1.481-.067,4.91-.792,4.91-2.359V0a4.7,4.7,0,0,1,2,1.639c2.187,2.97-.239,5.633-2.217,5.633-2.5,0-4.15-2.086-4.7-3.089-.553,1-2.207,3.089-4.7,3.089-1.978,0-4.4-2.663-2.217-5.633A4.7,4.7,0,0,1,2.868,0V1.323c0,1.567,3.522,2.292,4.923,2.359Z" transform="translate(21.672 38.376)" fill="url(#h)"/></g></g><circle cx="30.5" cy="30.5" r="30.5" transform="translate(0.208 -0.12)" fill="none"/></g></svg>